<mxfile host="Electron" agent="Mozilla/5.0 (Macintosh; Intel Mac OS X 10_15_7) AppleWebKit/537.36 (KHTML, like Gecko) draw.io/28.0.6 Chrome/138.0.7204.100 Electron/37.2.3 Safari/537.36" version="28.0.6">
  <diagram name="Page-1" id="caWsXlPzLzprsGsyw6yZ">
    <mxGraphModel dx="1757" dy="716" grid="1" gridSize="10" guides="1" tooltips="1" connect="1" arrows="1" fold="1" page="1" pageScale="1" pageWidth="827" pageHeight="1169" math="0" shadow="0">
      <root>
        <mxCell id="0" />
        <mxCell id="1" parent="0" />
        <mxCell id="I5lbJCb11O4Nojm7ezj9-1" value="SALES DATA MART" style="rounded=0;whiteSpace=wrap;html=1;fontSize=24;align=center;fillStyle=hatch;strokeColor=none;" vertex="1" parent="1">
          <mxGeometry x="-120" y="50" width="240" height="30" as="geometry" />
        </mxCell>
        <mxCell id="I5lbJCb11O4Nojm7ezj9-2" value="(STAR SCHEMA)" style="text;html=1;align=left;verticalAlign=middle;whiteSpace=wrap;rounded=0;fontSize=15;" vertex="1" parent="1">
          <mxGeometry x="120" y="60" width="120" height="20" as="geometry" />
        </mxCell>
        <mxCell id="I5lbJCb11O4Nojm7ezj9-4" value="&lt;font style=&quot;font-size: 18px; color: rgb(0, 0, 0);&quot;&gt;gold.dim_customers&lt;/font&gt;" style="shape=table;startSize=30;container=1;collapsible=1;childLayout=tableLayout;fixedRows=1;rowLines=0;fontStyle=1;align=center;resizeLast=1;html=1;rounded=1;fillColor=#D4E1F5;shadow=1;" vertex="1" parent="1">
          <mxGeometry x="-80" y="160" width="200" height="300" as="geometry" />
        </mxCell>
        <mxCell id="I5lbJCb11O4Nojm7ezj9-5" value="" style="shape=tableRow;horizontal=0;startSize=0;swimlaneHead=0;swimlaneBody=0;fillColor=none;collapsible=0;dropTarget=0;points=[[0,0.5],[1,0.5]];portConstraint=eastwest;top=0;left=0;right=0;bottom=1;" vertex="1" parent="I5lbJCb11O4Nojm7ezj9-4">
          <mxGeometry y="30" width="200" height="30" as="geometry" />
        </mxCell>
        <mxCell id="I5lbJCb11O4Nojm7ezj9-6" value="&lt;font style=&quot;font-size: 14px;&quot;&gt;PK&lt;/font&gt;" style="shape=partialRectangle;connectable=0;fillColor=none;top=0;left=0;bottom=0;right=0;fontStyle=1;overflow=hidden;whiteSpace=wrap;html=1;" vertex="1" parent="I5lbJCb11O4Nojm7ezj9-5">
          <mxGeometry width="30" height="30" as="geometry">
            <mxRectangle width="30" height="30" as="alternateBounds" />
          </mxGeometry>
        </mxCell>
        <mxCell id="I5lbJCb11O4Nojm7ezj9-7" value="&lt;font style=&quot;font-size: 16px;&quot;&gt;customer_key&lt;/font&gt;" style="shape=partialRectangle;connectable=0;fillColor=none;top=0;left=0;bottom=0;right=0;align=left;spacingLeft=6;fontStyle=5;overflow=hidden;whiteSpace=wrap;html=1;" vertex="1" parent="I5lbJCb11O4Nojm7ezj9-5">
          <mxGeometry x="30" width="170" height="30" as="geometry">
            <mxRectangle width="170" height="30" as="alternateBounds" />
          </mxGeometry>
        </mxCell>
        <mxCell id="I5lbJCb11O4Nojm7ezj9-8" value="" style="shape=tableRow;horizontal=0;startSize=0;swimlaneHead=0;swimlaneBody=0;fillColor=none;collapsible=0;dropTarget=0;points=[[0,0.5],[1,0.5]];portConstraint=eastwest;top=0;left=0;right=0;bottom=0;fontSize=16;" vertex="1" parent="I5lbJCb11O4Nojm7ezj9-4">
          <mxGeometry y="60" width="200" height="30" as="geometry" />
        </mxCell>
        <mxCell id="I5lbJCb11O4Nojm7ezj9-9" value="" style="shape=partialRectangle;connectable=0;fillColor=none;top=0;left=0;bottom=0;right=0;editable=1;overflow=hidden;whiteSpace=wrap;html=1;fontSize=16;" vertex="1" parent="I5lbJCb11O4Nojm7ezj9-8">
          <mxGeometry width="30" height="30" as="geometry">
            <mxRectangle width="30" height="30" as="alternateBounds" />
          </mxGeometry>
        </mxCell>
        <mxCell id="I5lbJCb11O4Nojm7ezj9-10" value="customer_id" style="shape=partialRectangle;connectable=0;fillColor=none;top=0;left=0;bottom=0;right=0;align=left;spacingLeft=6;overflow=hidden;whiteSpace=wrap;html=1;fontSize=16;" vertex="1" parent="I5lbJCb11O4Nojm7ezj9-8">
          <mxGeometry x="30" width="170" height="30" as="geometry">
            <mxRectangle width="170" height="30" as="alternateBounds" />
          </mxGeometry>
        </mxCell>
        <mxCell id="I5lbJCb11O4Nojm7ezj9-11" value="" style="shape=tableRow;horizontal=0;startSize=0;swimlaneHead=0;swimlaneBody=0;fillColor=none;collapsible=0;dropTarget=0;points=[[0,0.5],[1,0.5]];portConstraint=eastwest;top=0;left=0;right=0;bottom=0;fontSize=16;" vertex="1" parent="I5lbJCb11O4Nojm7ezj9-4">
          <mxGeometry y="90" width="200" height="30" as="geometry" />
        </mxCell>
        <mxCell id="I5lbJCb11O4Nojm7ezj9-12" value="" style="shape=partialRectangle;connectable=0;fillColor=none;top=0;left=0;bottom=0;right=0;editable=1;overflow=hidden;whiteSpace=wrap;html=1;fontSize=16;" vertex="1" parent="I5lbJCb11O4Nojm7ezj9-11">
          <mxGeometry width="30" height="30" as="geometry">
            <mxRectangle width="30" height="30" as="alternateBounds" />
          </mxGeometry>
        </mxCell>
        <mxCell id="I5lbJCb11O4Nojm7ezj9-13" value="customer_number" style="shape=partialRectangle;connectable=0;fillColor=none;top=0;left=0;bottom=0;right=0;align=left;spacingLeft=6;overflow=hidden;whiteSpace=wrap;html=1;fontSize=16;" vertex="1" parent="I5lbJCb11O4Nojm7ezj9-11">
          <mxGeometry x="30" width="170" height="30" as="geometry">
            <mxRectangle width="170" height="30" as="alternateBounds" />
          </mxGeometry>
        </mxCell>
        <mxCell id="I5lbJCb11O4Nojm7ezj9-14" value="" style="shape=tableRow;horizontal=0;startSize=0;swimlaneHead=0;swimlaneBody=0;fillColor=none;collapsible=0;dropTarget=0;points=[[0,0.5],[1,0.5]];portConstraint=eastwest;top=0;left=0;right=0;bottom=0;fontSize=16;" vertex="1" parent="I5lbJCb11O4Nojm7ezj9-4">
          <mxGeometry y="120" width="200" height="30" as="geometry" />
        </mxCell>
        <mxCell id="I5lbJCb11O4Nojm7ezj9-15" value="" style="shape=partialRectangle;connectable=0;fillColor=none;top=0;left=0;bottom=0;right=0;editable=1;overflow=hidden;whiteSpace=wrap;html=1;fontSize=16;" vertex="1" parent="I5lbJCb11O4Nojm7ezj9-14">
          <mxGeometry width="30" height="30" as="geometry">
            <mxRectangle width="30" height="30" as="alternateBounds" />
          </mxGeometry>
        </mxCell>
        <mxCell id="I5lbJCb11O4Nojm7ezj9-16" value="first_name" style="shape=partialRectangle;connectable=0;fillColor=none;top=0;left=0;bottom=0;right=0;align=left;spacingLeft=6;overflow=hidden;whiteSpace=wrap;html=1;fontSize=16;" vertex="1" parent="I5lbJCb11O4Nojm7ezj9-14">
          <mxGeometry x="30" width="170" height="30" as="geometry">
            <mxRectangle width="170" height="30" as="alternateBounds" />
          </mxGeometry>
        </mxCell>
        <mxCell id="I5lbJCb11O4Nojm7ezj9-17" value="" style="shape=tableRow;horizontal=0;startSize=0;swimlaneHead=0;swimlaneBody=0;fillColor=none;collapsible=0;dropTarget=0;points=[[0,0.5],[1,0.5]];portConstraint=eastwest;top=0;left=0;right=0;bottom=0;fontSize=16;" vertex="1" parent="I5lbJCb11O4Nojm7ezj9-4">
          <mxGeometry y="150" width="200" height="30" as="geometry" />
        </mxCell>
        <mxCell id="I5lbJCb11O4Nojm7ezj9-18" value="" style="shape=partialRectangle;connectable=0;fillColor=none;top=0;left=0;bottom=0;right=0;editable=1;overflow=hidden;whiteSpace=wrap;html=1;fontSize=16;" vertex="1" parent="I5lbJCb11O4Nojm7ezj9-17">
          <mxGeometry width="30" height="30" as="geometry">
            <mxRectangle width="30" height="30" as="alternateBounds" />
          </mxGeometry>
        </mxCell>
        <mxCell id="I5lbJCb11O4Nojm7ezj9-19" value="last_name" style="shape=partialRectangle;connectable=0;fillColor=none;top=0;left=0;bottom=0;right=0;align=left;spacingLeft=6;overflow=hidden;whiteSpace=wrap;html=1;fontSize=16;" vertex="1" parent="I5lbJCb11O4Nojm7ezj9-17">
          <mxGeometry x="30" width="170" height="30" as="geometry">
            <mxRectangle width="170" height="30" as="alternateBounds" />
          </mxGeometry>
        </mxCell>
        <mxCell id="I5lbJCb11O4Nojm7ezj9-36" value="" style="shape=tableRow;horizontal=0;startSize=0;swimlaneHead=0;swimlaneBody=0;fillColor=none;collapsible=0;dropTarget=0;points=[[0,0.5],[1,0.5]];portConstraint=eastwest;top=0;left=0;right=0;bottom=0;fontSize=16;" vertex="1" parent="I5lbJCb11O4Nojm7ezj9-4">
          <mxGeometry y="180" width="200" height="30" as="geometry" />
        </mxCell>
        <mxCell id="I5lbJCb11O4Nojm7ezj9-37" value="" style="shape=partialRectangle;connectable=0;fillColor=none;top=0;left=0;bottom=0;right=0;editable=1;overflow=hidden;whiteSpace=wrap;html=1;fontSize=16;" vertex="1" parent="I5lbJCb11O4Nojm7ezj9-36">
          <mxGeometry width="30" height="30" as="geometry">
            <mxRectangle width="30" height="30" as="alternateBounds" />
          </mxGeometry>
        </mxCell>
        <mxCell id="I5lbJCb11O4Nojm7ezj9-38" value="country" style="shape=partialRectangle;connectable=0;fillColor=none;top=0;left=0;bottom=0;right=0;align=left;spacingLeft=6;overflow=hidden;whiteSpace=wrap;html=1;fontSize=16;" vertex="1" parent="I5lbJCb11O4Nojm7ezj9-36">
          <mxGeometry x="30" width="170" height="30" as="geometry">
            <mxRectangle width="170" height="30" as="alternateBounds" />
          </mxGeometry>
        </mxCell>
        <mxCell id="I5lbJCb11O4Nojm7ezj9-39" value="" style="shape=tableRow;horizontal=0;startSize=0;swimlaneHead=0;swimlaneBody=0;fillColor=none;collapsible=0;dropTarget=0;points=[[0,0.5],[1,0.5]];portConstraint=eastwest;top=0;left=0;right=0;bottom=0;fontSize=16;" vertex="1" parent="I5lbJCb11O4Nojm7ezj9-4">
          <mxGeometry y="210" width="200" height="30" as="geometry" />
        </mxCell>
        <mxCell id="I5lbJCb11O4Nojm7ezj9-40" value="" style="shape=partialRectangle;connectable=0;fillColor=none;top=0;left=0;bottom=0;right=0;editable=1;overflow=hidden;whiteSpace=wrap;html=1;fontSize=16;" vertex="1" parent="I5lbJCb11O4Nojm7ezj9-39">
          <mxGeometry width="30" height="30" as="geometry">
            <mxRectangle width="30" height="30" as="alternateBounds" />
          </mxGeometry>
        </mxCell>
        <mxCell id="I5lbJCb11O4Nojm7ezj9-41" value="marital_status" style="shape=partialRectangle;connectable=0;fillColor=none;top=0;left=0;bottom=0;right=0;align=left;spacingLeft=6;overflow=hidden;whiteSpace=wrap;html=1;fontSize=16;" vertex="1" parent="I5lbJCb11O4Nojm7ezj9-39">
          <mxGeometry x="30" width="170" height="30" as="geometry">
            <mxRectangle width="170" height="30" as="alternateBounds" />
          </mxGeometry>
        </mxCell>
        <mxCell id="I5lbJCb11O4Nojm7ezj9-42" value="" style="shape=tableRow;horizontal=0;startSize=0;swimlaneHead=0;swimlaneBody=0;fillColor=none;collapsible=0;dropTarget=0;points=[[0,0.5],[1,0.5]];portConstraint=eastwest;top=0;left=0;right=0;bottom=0;fontSize=16;" vertex="1" parent="I5lbJCb11O4Nojm7ezj9-4">
          <mxGeometry y="240" width="200" height="30" as="geometry" />
        </mxCell>
        <mxCell id="I5lbJCb11O4Nojm7ezj9-43" value="" style="shape=partialRectangle;connectable=0;fillColor=none;top=0;left=0;bottom=0;right=0;editable=1;overflow=hidden;whiteSpace=wrap;html=1;fontSize=16;" vertex="1" parent="I5lbJCb11O4Nojm7ezj9-42">
          <mxGeometry width="30" height="30" as="geometry">
            <mxRectangle width="30" height="30" as="alternateBounds" />
          </mxGeometry>
        </mxCell>
        <mxCell id="I5lbJCb11O4Nojm7ezj9-44" value="gender" style="shape=partialRectangle;connectable=0;fillColor=none;top=0;left=0;bottom=0;right=0;align=left;spacingLeft=6;overflow=hidden;whiteSpace=wrap;html=1;fontSize=16;" vertex="1" parent="I5lbJCb11O4Nojm7ezj9-42">
          <mxGeometry x="30" width="170" height="30" as="geometry">
            <mxRectangle width="170" height="30" as="alternateBounds" />
          </mxGeometry>
        </mxCell>
        <mxCell id="I5lbJCb11O4Nojm7ezj9-45" value="" style="shape=tableRow;horizontal=0;startSize=0;swimlaneHead=0;swimlaneBody=0;fillColor=none;collapsible=0;dropTarget=0;points=[[0,0.5],[1,0.5]];portConstraint=eastwest;top=0;left=0;right=0;bottom=0;fontSize=16;" vertex="1" parent="I5lbJCb11O4Nojm7ezj9-4">
          <mxGeometry y="270" width="200" height="30" as="geometry" />
        </mxCell>
        <mxCell id="I5lbJCb11O4Nojm7ezj9-46" value="" style="shape=partialRectangle;connectable=0;fillColor=none;top=0;left=0;bottom=0;right=0;editable=1;overflow=hidden;whiteSpace=wrap;html=1;fontSize=16;" vertex="1" parent="I5lbJCb11O4Nojm7ezj9-45">
          <mxGeometry width="30" height="30" as="geometry">
            <mxRectangle width="30" height="30" as="alternateBounds" />
          </mxGeometry>
        </mxCell>
        <mxCell id="I5lbJCb11O4Nojm7ezj9-47" value="birthdate" style="shape=partialRectangle;connectable=0;fillColor=none;top=0;left=0;bottom=0;right=0;align=left;spacingLeft=6;overflow=hidden;whiteSpace=wrap;html=1;fontSize=16;" vertex="1" parent="I5lbJCb11O4Nojm7ezj9-45">
          <mxGeometry x="30" width="170" height="30" as="geometry">
            <mxRectangle width="170" height="30" as="alternateBounds" />
          </mxGeometry>
        </mxCell>
        <mxCell id="I5lbJCb11O4Nojm7ezj9-20" value="&lt;font style=&quot;font-size: 18px; color: rgb(0, 0, 0);&quot;&gt;gold.fact_sales&lt;/font&gt;" style="shape=table;startSize=30;container=1;collapsible=1;childLayout=tableLayout;fixedRows=1;rowLines=0;fontStyle=1;align=center;resizeLast=1;html=1;rounded=1;fillColor=#FFFF66;" vertex="1" parent="1">
          <mxGeometry x="240" y="160" width="200" height="354" as="geometry" />
        </mxCell>
        <mxCell id="I5lbJCb11O4Nojm7ezj9-24" value="" style="shape=tableRow;horizontal=0;startSize=0;swimlaneHead=0;swimlaneBody=0;fillColor=none;collapsible=0;dropTarget=0;points=[[0,0.5],[1,0.5]];portConstraint=eastwest;top=0;left=0;right=0;bottom=0;fontSize=16;" vertex="1" parent="I5lbJCb11O4Nojm7ezj9-20">
          <mxGeometry y="30" width="200" height="36" as="geometry" />
        </mxCell>
        <mxCell id="I5lbJCb11O4Nojm7ezj9-25" value="" style="shape=partialRectangle;connectable=0;fillColor=none;top=0;left=0;bottom=0;right=0;editable=1;overflow=hidden;whiteSpace=wrap;html=1;fontSize=16;" vertex="1" parent="I5lbJCb11O4Nojm7ezj9-24">
          <mxGeometry width="40.00000000000023" height="36" as="geometry">
            <mxRectangle width="40.00000000000023" height="36" as="alternateBounds" />
          </mxGeometry>
        </mxCell>
        <mxCell id="I5lbJCb11O4Nojm7ezj9-26" value="order_number" style="shape=partialRectangle;connectable=0;fillColor=none;top=0;left=0;bottom=0;right=0;align=left;spacingLeft=6;overflow=hidden;whiteSpace=wrap;html=1;fontSize=16;" vertex="1" parent="I5lbJCb11O4Nojm7ezj9-24">
          <mxGeometry x="40.00000000000023" width="159.99999999999977" height="36" as="geometry">
            <mxRectangle width="159.99999999999977" height="36" as="alternateBounds" />
          </mxGeometry>
        </mxCell>
        <mxCell id="I5lbJCb11O4Nojm7ezj9-27" value="" style="shape=tableRow;horizontal=0;startSize=0;swimlaneHead=0;swimlaneBody=0;fillColor=none;collapsible=0;dropTarget=0;points=[[0,0.5],[1,0.5]];portConstraint=eastwest;top=0;left=0;right=0;bottom=0;fontSize=16;" vertex="1" parent="I5lbJCb11O4Nojm7ezj9-20">
          <mxGeometry y="66" width="200" height="36" as="geometry" />
        </mxCell>
        <mxCell id="I5lbJCb11O4Nojm7ezj9-28" value="FK1" style="shape=partialRectangle;connectable=0;fillColor=none;top=0;left=0;bottom=0;right=0;editable=1;overflow=hidden;whiteSpace=wrap;html=1;fontSize=16;" vertex="1" parent="I5lbJCb11O4Nojm7ezj9-27">
          <mxGeometry width="40.00000000000023" height="36" as="geometry">
            <mxRectangle width="40.00000000000023" height="36" as="alternateBounds" />
          </mxGeometry>
        </mxCell>
        <mxCell id="I5lbJCb11O4Nojm7ezj9-29" value="&lt;u&gt;product_key&lt;/u&gt;" style="shape=partialRectangle;connectable=0;fillColor=none;top=0;left=0;bottom=0;right=0;align=left;spacingLeft=6;overflow=hidden;whiteSpace=wrap;html=1;fontSize=16;shadow=1;" vertex="1" parent="I5lbJCb11O4Nojm7ezj9-27">
          <mxGeometry x="40.00000000000023" width="159.99999999999977" height="36" as="geometry">
            <mxRectangle width="159.99999999999977" height="36" as="alternateBounds" />
          </mxGeometry>
        </mxCell>
        <mxCell id="I5lbJCb11O4Nojm7ezj9-30" value="" style="shape=tableRow;horizontal=0;startSize=0;swimlaneHead=0;swimlaneBody=0;fillColor=none;collapsible=0;dropTarget=0;points=[[0,0.5],[1,0.5]];portConstraint=eastwest;top=0;left=0;right=0;bottom=0;fontSize=16;" vertex="1" parent="I5lbJCb11O4Nojm7ezj9-20">
          <mxGeometry y="102" width="200" height="36" as="geometry" />
        </mxCell>
        <mxCell id="I5lbJCb11O4Nojm7ezj9-31" value="FK2" style="shape=partialRectangle;connectable=0;fillColor=none;top=0;left=0;bottom=0;right=0;editable=1;overflow=hidden;whiteSpace=wrap;html=1;fontSize=16;" vertex="1" parent="I5lbJCb11O4Nojm7ezj9-30">
          <mxGeometry width="40.00000000000023" height="36" as="geometry">
            <mxRectangle width="40.00000000000023" height="36" as="alternateBounds" />
          </mxGeometry>
        </mxCell>
        <mxCell id="I5lbJCb11O4Nojm7ezj9-32" value="&lt;u&gt;customer_key&lt;/u&gt;" style="shape=partialRectangle;connectable=0;fillColor=none;top=0;left=0;bottom=0;right=0;align=left;spacingLeft=6;overflow=hidden;whiteSpace=wrap;html=1;fontSize=16;shadow=1;" vertex="1" parent="I5lbJCb11O4Nojm7ezj9-30">
          <mxGeometry x="40.00000000000023" width="159.99999999999977" height="36" as="geometry">
            <mxRectangle width="159.99999999999977" height="36" as="alternateBounds" />
          </mxGeometry>
        </mxCell>
        <mxCell id="I5lbJCb11O4Nojm7ezj9-33" value="" style="shape=tableRow;horizontal=0;startSize=0;swimlaneHead=0;swimlaneBody=0;fillColor=none;collapsible=0;dropTarget=0;points=[[0,0.5],[1,0.5]];portConstraint=eastwest;top=0;left=0;right=0;bottom=0;fontSize=16;" vertex="1" parent="I5lbJCb11O4Nojm7ezj9-20">
          <mxGeometry y="138" width="200" height="36" as="geometry" />
        </mxCell>
        <mxCell id="I5lbJCb11O4Nojm7ezj9-34" value="" style="shape=partialRectangle;connectable=0;fillColor=none;top=0;left=0;bottom=0;right=0;editable=1;overflow=hidden;whiteSpace=wrap;html=1;fontSize=16;" vertex="1" parent="I5lbJCb11O4Nojm7ezj9-33">
          <mxGeometry width="40.00000000000023" height="36" as="geometry">
            <mxRectangle width="40.00000000000023" height="36" as="alternateBounds" />
          </mxGeometry>
        </mxCell>
        <mxCell id="I5lbJCb11O4Nojm7ezj9-35" value="order_date" style="shape=partialRectangle;connectable=0;fillColor=none;top=0;left=0;bottom=0;right=0;align=left;spacingLeft=6;overflow=hidden;whiteSpace=wrap;html=1;fontSize=16;" vertex="1" parent="I5lbJCb11O4Nojm7ezj9-33">
          <mxGeometry x="40.00000000000023" width="159.99999999999977" height="36" as="geometry">
            <mxRectangle width="159.99999999999977" height="36" as="alternateBounds" />
          </mxGeometry>
        </mxCell>
        <mxCell id="I5lbJCb11O4Nojm7ezj9-48" value="" style="shape=tableRow;horizontal=0;startSize=0;swimlaneHead=0;swimlaneBody=0;fillColor=none;collapsible=0;dropTarget=0;points=[[0,0.5],[1,0.5]];portConstraint=eastwest;top=0;left=0;right=0;bottom=0;fontSize=16;" vertex="1" parent="I5lbJCb11O4Nojm7ezj9-20">
          <mxGeometry y="174" width="200" height="36" as="geometry" />
        </mxCell>
        <mxCell id="I5lbJCb11O4Nojm7ezj9-49" value="" style="shape=partialRectangle;connectable=0;fillColor=none;top=0;left=0;bottom=0;right=0;editable=1;overflow=hidden;whiteSpace=wrap;html=1;fontSize=16;" vertex="1" parent="I5lbJCb11O4Nojm7ezj9-48">
          <mxGeometry width="40.00000000000023" height="36" as="geometry">
            <mxRectangle width="40.00000000000023" height="36" as="alternateBounds" />
          </mxGeometry>
        </mxCell>
        <mxCell id="I5lbJCb11O4Nojm7ezj9-50" value="shipping_date" style="shape=partialRectangle;connectable=0;fillColor=none;top=0;left=0;bottom=0;right=0;align=left;spacingLeft=6;overflow=hidden;whiteSpace=wrap;html=1;fontSize=16;" vertex="1" parent="I5lbJCb11O4Nojm7ezj9-48">
          <mxGeometry x="40.00000000000023" width="159.99999999999977" height="36" as="geometry">
            <mxRectangle width="159.99999999999977" height="36" as="alternateBounds" />
          </mxGeometry>
        </mxCell>
        <mxCell id="I5lbJCb11O4Nojm7ezj9-51" value="" style="shape=tableRow;horizontal=0;startSize=0;swimlaneHead=0;swimlaneBody=0;fillColor=none;collapsible=0;dropTarget=0;points=[[0,0.5],[1,0.5]];portConstraint=eastwest;top=0;left=0;right=0;bottom=0;fontSize=16;" vertex="1" parent="I5lbJCb11O4Nojm7ezj9-20">
          <mxGeometry y="210" width="200" height="36" as="geometry" />
        </mxCell>
        <mxCell id="I5lbJCb11O4Nojm7ezj9-52" value="" style="shape=partialRectangle;connectable=0;fillColor=none;top=0;left=0;bottom=0;right=0;editable=1;overflow=hidden;whiteSpace=wrap;html=1;fontSize=16;" vertex="1" parent="I5lbJCb11O4Nojm7ezj9-51">
          <mxGeometry width="40.00000000000023" height="36" as="geometry">
            <mxRectangle width="40.00000000000023" height="36" as="alternateBounds" />
          </mxGeometry>
        </mxCell>
        <mxCell id="I5lbJCb11O4Nojm7ezj9-53" value="due_date" style="shape=partialRectangle;connectable=0;fillColor=none;top=0;left=0;bottom=0;right=0;align=left;spacingLeft=6;overflow=hidden;whiteSpace=wrap;html=1;fontSize=16;" vertex="1" parent="I5lbJCb11O4Nojm7ezj9-51">
          <mxGeometry x="40.00000000000023" width="159.99999999999977" height="36" as="geometry">
            <mxRectangle width="159.99999999999977" height="36" as="alternateBounds" />
          </mxGeometry>
        </mxCell>
        <mxCell id="I5lbJCb11O4Nojm7ezj9-54" value="" style="shape=tableRow;horizontal=0;startSize=0;swimlaneHead=0;swimlaneBody=0;fillColor=none;collapsible=0;dropTarget=0;points=[[0,0.5],[1,0.5]];portConstraint=eastwest;top=0;left=0;right=0;bottom=0;fontSize=16;" vertex="1" parent="I5lbJCb11O4Nojm7ezj9-20">
          <mxGeometry y="246" width="200" height="36" as="geometry" />
        </mxCell>
        <mxCell id="I5lbJCb11O4Nojm7ezj9-55" value="" style="shape=partialRectangle;connectable=0;fillColor=none;top=0;left=0;bottom=0;right=0;editable=1;overflow=hidden;whiteSpace=wrap;html=1;fontSize=16;" vertex="1" parent="I5lbJCb11O4Nojm7ezj9-54">
          <mxGeometry width="40.00000000000023" height="36" as="geometry">
            <mxRectangle width="40.00000000000023" height="36" as="alternateBounds" />
          </mxGeometry>
        </mxCell>
        <mxCell id="I5lbJCb11O4Nojm7ezj9-56" value="sales_amount" style="shape=partialRectangle;connectable=0;fillColor=none;top=0;left=0;bottom=0;right=0;align=left;spacingLeft=6;overflow=hidden;whiteSpace=wrap;html=1;fontSize=16;" vertex="1" parent="I5lbJCb11O4Nojm7ezj9-54">
          <mxGeometry x="40.00000000000023" width="159.99999999999977" height="36" as="geometry">
            <mxRectangle width="159.99999999999977" height="36" as="alternateBounds" />
          </mxGeometry>
        </mxCell>
        <mxCell id="I5lbJCb11O4Nojm7ezj9-57" value="" style="shape=tableRow;horizontal=0;startSize=0;swimlaneHead=0;swimlaneBody=0;fillColor=none;collapsible=0;dropTarget=0;points=[[0,0.5],[1,0.5]];portConstraint=eastwest;top=0;left=0;right=0;bottom=0;fontSize=16;" vertex="1" parent="I5lbJCb11O4Nojm7ezj9-20">
          <mxGeometry y="282" width="200" height="36" as="geometry" />
        </mxCell>
        <mxCell id="I5lbJCb11O4Nojm7ezj9-58" value="" style="shape=partialRectangle;connectable=0;fillColor=none;top=0;left=0;bottom=0;right=0;editable=1;overflow=hidden;whiteSpace=wrap;html=1;fontSize=16;" vertex="1" parent="I5lbJCb11O4Nojm7ezj9-57">
          <mxGeometry width="40.00000000000023" height="36" as="geometry">
            <mxRectangle width="40.00000000000023" height="36" as="alternateBounds" />
          </mxGeometry>
        </mxCell>
        <mxCell id="I5lbJCb11O4Nojm7ezj9-59" value="quantity" style="shape=partialRectangle;connectable=0;fillColor=none;top=0;left=0;bottom=0;right=0;align=left;spacingLeft=6;overflow=hidden;whiteSpace=wrap;html=1;fontSize=16;" vertex="1" parent="I5lbJCb11O4Nojm7ezj9-57">
          <mxGeometry x="40.00000000000023" width="159.99999999999977" height="36" as="geometry">
            <mxRectangle width="159.99999999999977" height="36" as="alternateBounds" />
          </mxGeometry>
        </mxCell>
        <mxCell id="I5lbJCb11O4Nojm7ezj9-60" value="" style="shape=tableRow;horizontal=0;startSize=0;swimlaneHead=0;swimlaneBody=0;fillColor=none;collapsible=0;dropTarget=0;points=[[0,0.5],[1,0.5]];portConstraint=eastwest;top=0;left=0;right=0;bottom=0;fontSize=16;" vertex="1" parent="I5lbJCb11O4Nojm7ezj9-20">
          <mxGeometry y="318" width="200" height="36" as="geometry" />
        </mxCell>
        <mxCell id="I5lbJCb11O4Nojm7ezj9-61" value="" style="shape=partialRectangle;connectable=0;fillColor=none;top=0;left=0;bottom=0;right=0;editable=1;overflow=hidden;whiteSpace=wrap;html=1;fontSize=16;" vertex="1" parent="I5lbJCb11O4Nojm7ezj9-60">
          <mxGeometry width="40.00000000000023" height="36" as="geometry">
            <mxRectangle width="40.00000000000023" height="36" as="alternateBounds" />
          </mxGeometry>
        </mxCell>
        <mxCell id="I5lbJCb11O4Nojm7ezj9-62" value="price" style="shape=partialRectangle;connectable=0;fillColor=none;top=0;left=0;bottom=0;right=0;align=left;spacingLeft=6;overflow=hidden;whiteSpace=wrap;html=1;fontSize=16;" vertex="1" parent="I5lbJCb11O4Nojm7ezj9-60">
          <mxGeometry x="40.00000000000023" width="159.99999999999977" height="36" as="geometry">
            <mxRectangle width="159.99999999999977" height="36" as="alternateBounds" />
          </mxGeometry>
        </mxCell>
        <mxCell id="I5lbJCb11O4Nojm7ezj9-63" value="&lt;font style=&quot;font-size: 18px; color: rgb(0, 0, 0);&quot;&gt;gold.dim_products&lt;/font&gt;" style="shape=table;startSize=30;container=1;collapsible=1;childLayout=tableLayout;fixedRows=1;rowLines=0;fontStyle=1;align=center;resizeLast=1;html=1;rounded=1;fillColor=#D4E1F5;" vertex="1" parent="1">
          <mxGeometry x="560" y="160" width="180" height="360" as="geometry" />
        </mxCell>
        <mxCell id="I5lbJCb11O4Nojm7ezj9-64" value="" style="shape=tableRow;horizontal=0;startSize=0;swimlaneHead=0;swimlaneBody=0;fillColor=none;collapsible=0;dropTarget=0;points=[[0,0.5],[1,0.5]];portConstraint=eastwest;top=0;left=0;right=0;bottom=1;" vertex="1" parent="I5lbJCb11O4Nojm7ezj9-63">
          <mxGeometry y="30" width="180" height="30" as="geometry" />
        </mxCell>
        <mxCell id="I5lbJCb11O4Nojm7ezj9-65" value="&lt;font style=&quot;font-size: 14px;&quot;&gt;PK&lt;/font&gt;" style="shape=partialRectangle;connectable=0;fillColor=none;top=0;left=0;bottom=0;right=0;fontStyle=1;overflow=hidden;whiteSpace=wrap;html=1;" vertex="1" parent="I5lbJCb11O4Nojm7ezj9-64">
          <mxGeometry width="30" height="30" as="geometry">
            <mxRectangle width="30" height="30" as="alternateBounds" />
          </mxGeometry>
        </mxCell>
        <mxCell id="I5lbJCb11O4Nojm7ezj9-66" value="&lt;font style=&quot;font-size: 16px;&quot;&gt;product_key&lt;/font&gt;" style="shape=partialRectangle;connectable=0;fillColor=none;top=0;left=0;bottom=0;right=0;align=left;spacingLeft=6;fontStyle=5;overflow=hidden;whiteSpace=wrap;html=1;shadow=1;" vertex="1" parent="I5lbJCb11O4Nojm7ezj9-64">
          <mxGeometry x="30" width="150" height="30" as="geometry">
            <mxRectangle width="150" height="30" as="alternateBounds" />
          </mxGeometry>
        </mxCell>
        <mxCell id="I5lbJCb11O4Nojm7ezj9-67" value="" style="shape=tableRow;horizontal=0;startSize=0;swimlaneHead=0;swimlaneBody=0;fillColor=none;collapsible=0;dropTarget=0;points=[[0,0.5],[1,0.5]];portConstraint=eastwest;top=0;left=0;right=0;bottom=0;fontSize=16;" vertex="1" parent="I5lbJCb11O4Nojm7ezj9-63">
          <mxGeometry y="60" width="180" height="30" as="geometry" />
        </mxCell>
        <mxCell id="I5lbJCb11O4Nojm7ezj9-68" value="" style="shape=partialRectangle;connectable=0;fillColor=none;top=0;left=0;bottom=0;right=0;editable=1;overflow=hidden;whiteSpace=wrap;html=1;fontSize=16;" vertex="1" parent="I5lbJCb11O4Nojm7ezj9-67">
          <mxGeometry width="30" height="30" as="geometry">
            <mxRectangle width="30" height="30" as="alternateBounds" />
          </mxGeometry>
        </mxCell>
        <mxCell id="I5lbJCb11O4Nojm7ezj9-69" value="product_id" style="shape=partialRectangle;connectable=0;fillColor=none;top=0;left=0;bottom=0;right=0;align=left;spacingLeft=6;overflow=hidden;whiteSpace=wrap;html=1;fontSize=16;" vertex="1" parent="I5lbJCb11O4Nojm7ezj9-67">
          <mxGeometry x="30" width="150" height="30" as="geometry">
            <mxRectangle width="150" height="30" as="alternateBounds" />
          </mxGeometry>
        </mxCell>
        <mxCell id="I5lbJCb11O4Nojm7ezj9-70" value="" style="shape=tableRow;horizontal=0;startSize=0;swimlaneHead=0;swimlaneBody=0;fillColor=none;collapsible=0;dropTarget=0;points=[[0,0.5],[1,0.5]];portConstraint=eastwest;top=0;left=0;right=0;bottom=0;fontSize=16;" vertex="1" parent="I5lbJCb11O4Nojm7ezj9-63">
          <mxGeometry y="90" width="180" height="30" as="geometry" />
        </mxCell>
        <mxCell id="I5lbJCb11O4Nojm7ezj9-71" value="" style="shape=partialRectangle;connectable=0;fillColor=none;top=0;left=0;bottom=0;right=0;editable=1;overflow=hidden;whiteSpace=wrap;html=1;fontSize=16;" vertex="1" parent="I5lbJCb11O4Nojm7ezj9-70">
          <mxGeometry width="30" height="30" as="geometry">
            <mxRectangle width="30" height="30" as="alternateBounds" />
          </mxGeometry>
        </mxCell>
        <mxCell id="I5lbJCb11O4Nojm7ezj9-72" value="product_number" style="shape=partialRectangle;connectable=0;fillColor=none;top=0;left=0;bottom=0;right=0;align=left;spacingLeft=6;overflow=hidden;whiteSpace=wrap;html=1;fontSize=16;" vertex="1" parent="I5lbJCb11O4Nojm7ezj9-70">
          <mxGeometry x="30" width="150" height="30" as="geometry">
            <mxRectangle width="150" height="30" as="alternateBounds" />
          </mxGeometry>
        </mxCell>
        <mxCell id="I5lbJCb11O4Nojm7ezj9-73" value="" style="shape=tableRow;horizontal=0;startSize=0;swimlaneHead=0;swimlaneBody=0;fillColor=none;collapsible=0;dropTarget=0;points=[[0,0.5],[1,0.5]];portConstraint=eastwest;top=0;left=0;right=0;bottom=0;fontSize=16;" vertex="1" parent="I5lbJCb11O4Nojm7ezj9-63">
          <mxGeometry y="120" width="180" height="30" as="geometry" />
        </mxCell>
        <mxCell id="I5lbJCb11O4Nojm7ezj9-74" value="" style="shape=partialRectangle;connectable=0;fillColor=none;top=0;left=0;bottom=0;right=0;editable=1;overflow=hidden;whiteSpace=wrap;html=1;fontSize=16;" vertex="1" parent="I5lbJCb11O4Nojm7ezj9-73">
          <mxGeometry width="30" height="30" as="geometry">
            <mxRectangle width="30" height="30" as="alternateBounds" />
          </mxGeometry>
        </mxCell>
        <mxCell id="I5lbJCb11O4Nojm7ezj9-75" value="product_name" style="shape=partialRectangle;connectable=0;fillColor=none;top=0;left=0;bottom=0;right=0;align=left;spacingLeft=6;overflow=hidden;whiteSpace=wrap;html=1;fontSize=16;" vertex="1" parent="I5lbJCb11O4Nojm7ezj9-73">
          <mxGeometry x="30" width="150" height="30" as="geometry">
            <mxRectangle width="150" height="30" as="alternateBounds" />
          </mxGeometry>
        </mxCell>
        <mxCell id="I5lbJCb11O4Nojm7ezj9-76" value="" style="shape=tableRow;horizontal=0;startSize=0;swimlaneHead=0;swimlaneBody=0;fillColor=none;collapsible=0;dropTarget=0;points=[[0,0.5],[1,0.5]];portConstraint=eastwest;top=0;left=0;right=0;bottom=0;fontSize=16;" vertex="1" parent="I5lbJCb11O4Nojm7ezj9-63">
          <mxGeometry y="150" width="180" height="30" as="geometry" />
        </mxCell>
        <mxCell id="I5lbJCb11O4Nojm7ezj9-77" value="" style="shape=partialRectangle;connectable=0;fillColor=none;top=0;left=0;bottom=0;right=0;editable=1;overflow=hidden;whiteSpace=wrap;html=1;fontSize=16;" vertex="1" parent="I5lbJCb11O4Nojm7ezj9-76">
          <mxGeometry width="30" height="30" as="geometry">
            <mxRectangle width="30" height="30" as="alternateBounds" />
          </mxGeometry>
        </mxCell>
        <mxCell id="I5lbJCb11O4Nojm7ezj9-78" value="category_id" style="shape=partialRectangle;connectable=0;fillColor=none;top=0;left=0;bottom=0;right=0;align=left;spacingLeft=6;overflow=hidden;whiteSpace=wrap;html=1;fontSize=16;" vertex="1" parent="I5lbJCb11O4Nojm7ezj9-76">
          <mxGeometry x="30" width="150" height="30" as="geometry">
            <mxRectangle width="150" height="30" as="alternateBounds" />
          </mxGeometry>
        </mxCell>
        <mxCell id="I5lbJCb11O4Nojm7ezj9-79" value="" style="shape=tableRow;horizontal=0;startSize=0;swimlaneHead=0;swimlaneBody=0;fillColor=none;collapsible=0;dropTarget=0;points=[[0,0.5],[1,0.5]];portConstraint=eastwest;top=0;left=0;right=0;bottom=0;fontSize=16;" vertex="1" parent="I5lbJCb11O4Nojm7ezj9-63">
          <mxGeometry y="180" width="180" height="30" as="geometry" />
        </mxCell>
        <mxCell id="I5lbJCb11O4Nojm7ezj9-80" value="" style="shape=partialRectangle;connectable=0;fillColor=none;top=0;left=0;bottom=0;right=0;editable=1;overflow=hidden;whiteSpace=wrap;html=1;fontSize=16;" vertex="1" parent="I5lbJCb11O4Nojm7ezj9-79">
          <mxGeometry width="30" height="30" as="geometry">
            <mxRectangle width="30" height="30" as="alternateBounds" />
          </mxGeometry>
        </mxCell>
        <mxCell id="I5lbJCb11O4Nojm7ezj9-81" value="category" style="shape=partialRectangle;connectable=0;fillColor=none;top=0;left=0;bottom=0;right=0;align=left;spacingLeft=6;overflow=hidden;whiteSpace=wrap;html=1;fontSize=16;" vertex="1" parent="I5lbJCb11O4Nojm7ezj9-79">
          <mxGeometry x="30" width="150" height="30" as="geometry">
            <mxRectangle width="150" height="30" as="alternateBounds" />
          </mxGeometry>
        </mxCell>
        <mxCell id="I5lbJCb11O4Nojm7ezj9-82" value="" style="shape=tableRow;horizontal=0;startSize=0;swimlaneHead=0;swimlaneBody=0;fillColor=none;collapsible=0;dropTarget=0;points=[[0,0.5],[1,0.5]];portConstraint=eastwest;top=0;left=0;right=0;bottom=0;fontSize=16;" vertex="1" parent="I5lbJCb11O4Nojm7ezj9-63">
          <mxGeometry y="210" width="180" height="30" as="geometry" />
        </mxCell>
        <mxCell id="I5lbJCb11O4Nojm7ezj9-83" value="" style="shape=partialRectangle;connectable=0;fillColor=none;top=0;left=0;bottom=0;right=0;editable=1;overflow=hidden;whiteSpace=wrap;html=1;fontSize=16;" vertex="1" parent="I5lbJCb11O4Nojm7ezj9-82">
          <mxGeometry width="30" height="30" as="geometry">
            <mxRectangle width="30" height="30" as="alternateBounds" />
          </mxGeometry>
        </mxCell>
        <mxCell id="I5lbJCb11O4Nojm7ezj9-84" value="subcategory" style="shape=partialRectangle;connectable=0;fillColor=none;top=0;left=0;bottom=0;right=0;align=left;spacingLeft=6;overflow=hidden;whiteSpace=wrap;html=1;fontSize=16;" vertex="1" parent="I5lbJCb11O4Nojm7ezj9-82">
          <mxGeometry x="30" width="150" height="30" as="geometry">
            <mxRectangle width="150" height="30" as="alternateBounds" />
          </mxGeometry>
        </mxCell>
        <mxCell id="I5lbJCb11O4Nojm7ezj9-85" value="" style="shape=tableRow;horizontal=0;startSize=0;swimlaneHead=0;swimlaneBody=0;fillColor=none;collapsible=0;dropTarget=0;points=[[0,0.5],[1,0.5]];portConstraint=eastwest;top=0;left=0;right=0;bottom=0;fontSize=16;" vertex="1" parent="I5lbJCb11O4Nojm7ezj9-63">
          <mxGeometry y="240" width="180" height="30" as="geometry" />
        </mxCell>
        <mxCell id="I5lbJCb11O4Nojm7ezj9-86" value="" style="shape=partialRectangle;connectable=0;fillColor=none;top=0;left=0;bottom=0;right=0;editable=1;overflow=hidden;whiteSpace=wrap;html=1;fontSize=16;" vertex="1" parent="I5lbJCb11O4Nojm7ezj9-85">
          <mxGeometry width="30" height="30" as="geometry">
            <mxRectangle width="30" height="30" as="alternateBounds" />
          </mxGeometry>
        </mxCell>
        <mxCell id="I5lbJCb11O4Nojm7ezj9-87" value="maintenance" style="shape=partialRectangle;connectable=0;fillColor=none;top=0;left=0;bottom=0;right=0;align=left;spacingLeft=6;overflow=hidden;whiteSpace=wrap;html=1;fontSize=16;" vertex="1" parent="I5lbJCb11O4Nojm7ezj9-85">
          <mxGeometry x="30" width="150" height="30" as="geometry">
            <mxRectangle width="150" height="30" as="alternateBounds" />
          </mxGeometry>
        </mxCell>
        <mxCell id="I5lbJCb11O4Nojm7ezj9-88" value="" style="shape=tableRow;horizontal=0;startSize=0;swimlaneHead=0;swimlaneBody=0;fillColor=none;collapsible=0;dropTarget=0;points=[[0,0.5],[1,0.5]];portConstraint=eastwest;top=0;left=0;right=0;bottom=0;fontSize=16;" vertex="1" parent="I5lbJCb11O4Nojm7ezj9-63">
          <mxGeometry y="270" width="180" height="30" as="geometry" />
        </mxCell>
        <mxCell id="I5lbJCb11O4Nojm7ezj9-89" value="" style="shape=partialRectangle;connectable=0;fillColor=none;top=0;left=0;bottom=0;right=0;editable=1;overflow=hidden;whiteSpace=wrap;html=1;fontSize=16;" vertex="1" parent="I5lbJCb11O4Nojm7ezj9-88">
          <mxGeometry width="30" height="30" as="geometry">
            <mxRectangle width="30" height="30" as="alternateBounds" />
          </mxGeometry>
        </mxCell>
        <mxCell id="I5lbJCb11O4Nojm7ezj9-90" value="cost" style="shape=partialRectangle;connectable=0;fillColor=none;top=0;left=0;bottom=0;right=0;align=left;spacingLeft=6;overflow=hidden;whiteSpace=wrap;html=1;fontSize=16;" vertex="1" parent="I5lbJCb11O4Nojm7ezj9-88">
          <mxGeometry x="30" width="150" height="30" as="geometry">
            <mxRectangle width="150" height="30" as="alternateBounds" />
          </mxGeometry>
        </mxCell>
        <mxCell id="I5lbJCb11O4Nojm7ezj9-91" value="" style="shape=tableRow;horizontal=0;startSize=0;swimlaneHead=0;swimlaneBody=0;fillColor=none;collapsible=0;dropTarget=0;points=[[0,0.5],[1,0.5]];portConstraint=eastwest;top=0;left=0;right=0;bottom=0;fontSize=16;" vertex="1" parent="I5lbJCb11O4Nojm7ezj9-63">
          <mxGeometry y="300" width="180" height="30" as="geometry" />
        </mxCell>
        <mxCell id="I5lbJCb11O4Nojm7ezj9-92" value="" style="shape=partialRectangle;connectable=0;fillColor=none;top=0;left=0;bottom=0;right=0;editable=1;overflow=hidden;whiteSpace=wrap;html=1;fontSize=16;" vertex="1" parent="I5lbJCb11O4Nojm7ezj9-91">
          <mxGeometry width="30" height="30" as="geometry">
            <mxRectangle width="30" height="30" as="alternateBounds" />
          </mxGeometry>
        </mxCell>
        <mxCell id="I5lbJCb11O4Nojm7ezj9-93" value="product_line" style="shape=partialRectangle;connectable=0;fillColor=none;top=0;left=0;bottom=0;right=0;align=left;spacingLeft=6;overflow=hidden;whiteSpace=wrap;html=1;fontSize=16;" vertex="1" parent="I5lbJCb11O4Nojm7ezj9-91">
          <mxGeometry x="30" width="150" height="30" as="geometry">
            <mxRectangle width="150" height="30" as="alternateBounds" />
          </mxGeometry>
        </mxCell>
        <mxCell id="I5lbJCb11O4Nojm7ezj9-94" value="" style="shape=tableRow;horizontal=0;startSize=0;swimlaneHead=0;swimlaneBody=0;fillColor=none;collapsible=0;dropTarget=0;points=[[0,0.5],[1,0.5]];portConstraint=eastwest;top=0;left=0;right=0;bottom=0;fontSize=16;" vertex="1" parent="I5lbJCb11O4Nojm7ezj9-63">
          <mxGeometry y="330" width="180" height="30" as="geometry" />
        </mxCell>
        <mxCell id="I5lbJCb11O4Nojm7ezj9-95" value="" style="shape=partialRectangle;connectable=0;fillColor=none;top=0;left=0;bottom=0;right=0;editable=1;overflow=hidden;whiteSpace=wrap;html=1;fontSize=16;" vertex="1" parent="I5lbJCb11O4Nojm7ezj9-94">
          <mxGeometry width="30" height="30" as="geometry">
            <mxRectangle width="30" height="30" as="alternateBounds" />
          </mxGeometry>
        </mxCell>
        <mxCell id="I5lbJCb11O4Nojm7ezj9-96" value="start_date" style="shape=partialRectangle;connectable=0;fillColor=none;top=0;left=0;bottom=0;right=0;align=left;spacingLeft=6;overflow=hidden;whiteSpace=wrap;html=1;fontSize=16;" vertex="1" parent="I5lbJCb11O4Nojm7ezj9-94">
          <mxGeometry x="30" width="150" height="30" as="geometry">
            <mxRectangle width="150" height="30" as="alternateBounds" />
          </mxGeometry>
        </mxCell>
        <mxCell id="I5lbJCb11O4Nojm7ezj9-100" value="" style="edgeStyle=entityRelationEdgeStyle;fontSize=12;html=1;endArrow=ERzeroToMany;startArrow=ERmandOne;rounded=0;" edge="1" parent="1" source="I5lbJCb11O4Nojm7ezj9-5" target="I5lbJCb11O4Nojm7ezj9-30">
          <mxGeometry width="100" height="100" relative="1" as="geometry">
            <mxPoint x="123" y="205" as="sourcePoint" />
            <mxPoint x="240" y="280" as="targetPoint" />
            <Array as="points">
              <mxPoint x="20" y="220" />
            </Array>
          </mxGeometry>
        </mxCell>
        <mxCell id="I5lbJCb11O4Nojm7ezj9-101" value="" style="edgeStyle=entityRelationEdgeStyle;fontSize=12;html=1;endArrow=ERzeroToMany;startArrow=ERmandOne;rounded=0;entryX=1;entryY=0.5;entryDx=0;entryDy=0;exitX=0;exitY=0.5;exitDx=0;exitDy=0;" edge="1" parent="1" source="I5lbJCb11O4Nojm7ezj9-64" target="I5lbJCb11O4Nojm7ezj9-27">
          <mxGeometry width="100" height="100" relative="1" as="geometry">
            <mxPoint x="620" y="270" as="sourcePoint" />
            <mxPoint x="500" y="311.9999999999999" as="targetPoint" />
          </mxGeometry>
        </mxCell>
      </root>
    </mxGraphModel>
  </diagram>
</mxfile>
